<?xml version="1.0" standalone="no"?>
<!DOCTYPE svg PUBLIC "-//W3C//DTD SVG 20010904//EN"
 "http://www.w3.org/TR/2001/REC-SVG-20010904/DTD/svg10.dtd">
<svg version="1.0" xmlns="http://www.w3.org/2000/svg"
 width="486.000000pt" height="352.000000pt" viewBox="0 0 486.000000 352.000000"
 preserveAspectRatio="xMidYMid meet">
<metadata>
Created by potrace 1.16, written by Peter Selinger 2001-2019
</metadata>
<g transform="translate(0.000000,352.000000) scale(0.100000,-0.100000)"
fill="#000000" stroke="none">
<path d="M1555 3451 c-181 -22 -362 -78 -552 -172 -79 -38 -143 -74 -143 -78
0 -5 -13 -14 -30 -21 -16 -7 -30 -16 -30 -21 0 -5 -7 -9 -15 -9 -9 0 -18 -7
-21 -15 -4 -8 -12 -15 -20 -15 -8 0 -14 -4 -14 -8 0 -4 -14 -16 -31 -26 -42
-25 -173 -154 -249 -246 -180 -216 -313 -494 -365 -760 -27 -138 -30 -175 -29
-385 1 -176 4 -215 27 -328 15 -71 31 -137 37 -147 5 -10 10 -27 10 -37 0 -10
6 -30 14 -45 8 -14 19 -43 26 -64 28 -84 180 -358 216 -389 6 -5 15 -17 20
-27 22 -41 166 -192 254 -267 94 -79 232 -172 325 -218 99 -50 100 -50 131 -1
88 139 214 254 354 324 94 46 253 84 355 84 74 0 206 -24 280 -51 39 -15 169
-80 175 -88 3 -4 26 -22 53 -40 26 -17 58 -42 71 -54 169 -155 298 -238 419
-266 119 -28 293 -5 402 52 51 27 196 158 241 218 28 37 85 150 80 158 -3 5
-26 18 -51 30 l-46 22 -59 -60 c-108 -110 -191 -152 -310 -158 -76 -4 -91 -2
-143 22 l-57 27 93 91 c51 51 107 110 125 132 67 86 132 180 132 192 0 7 4 13
9 13 11 0 111 206 143 295 42 115 67 206 78 280 5 39 14 97 20 130 13 78 13
327 0 396 -6 30 -15 85 -21 124 -14 97 -71 285 -118 383 -98 208 -204 363
-355 518 -48 50 -111 109 -140 130 -28 21 -53 41 -56 44 -37 38 -270 175 -350
205 -140 52 -268 95 -287 95 -12 0 -48 7 -80 16 -65 17 -414 28 -518 15z m450
-350 c138 -25 313 -83 385 -129 19 -12 39 -22 43 -22 7 0 87 -53 177 -116 57
-40 188 -174 244 -249 54 -72 140 -213 168 -275 37 -82 48 -112 77 -219 62
-222 62 -526 0 -746 -31 -109 -40 -132 -88 -235 -63 -137 -183 -301 -301 -413
-106 -102 -109 -103 -151 -66 -19 17 -59 47 -89 67 -63 42 -71 46 -162 94
-105 54 -342 108 -477 108 -167 0 -372 -50 -525 -128 -88 -45 -152 -89 -237
-163 l-66 -57 -89 70 c-49 39 -120 107 -159 150 -76 86 -205 270 -205 293 0 7
-4 16 -8 19 -12 7 -76 168 -100 251 -52 180 -66 412 -37 600 42 267 144 491
317 697 61 72 236 238 252 238 2 0 31 17 63 39 63 41 130 78 178 97 116 46
142 56 159 59 10 3 33 9 50 14 26 9 122 26 251 45 55 8 219 -3 330 -23z"/>
<path d="M4559 391 c-36 -36 -39 -43 -39 -96 0 -53 3 -60 39 -96 36 -36 43
-39 96 -39 53 0 60 3 96 39 36 36 39 43 39 96 0 53 -3 60 -39 96 -36 36 -43
39 -96 39 -53 0 -60 -3 -96 -39z"/>
<path d="M3629 381 c-36 -36 -39 -43 -39 -96 0 -53 3 -60 39 -96 36 -36 43
-39 96 -39 53 0 60 3 96 39 36 36 39 43 39 96 0 53 -3 60 -39 96 -36 36 -43
39 -96 39 -53 0 -60 -3 -96 -39z"/>
<path d="M4099 381 c-36 -36 -39 -43 -39 -96 0 -53 3 -60 39 -96 36 -36 43
-39 96 -39 53 0 60 3 96 39 36 36 39 43 39 96 0 53 -3 60 -39 96 -36 36 -43
39 -96 39 -53 0 -60 -3 -96 -39z"/>
</g>
</svg>
